<svg xmlns="http://www.w3.org/2000/svg" id="Layer_1" viewBox="0 0 141.7 141.7">
  <style>
    .st0{fill:#FFE81F;}
  </style>
  <path d="M88.4 89.9c-5.1 0-11.1-.7-13.6-2.4-.9-.6-1.2-1.8-.6-2.8.6-.9 1.8-1.2 2.8-.6 1.3.9 6.3 1.8 11.9 1.7 1.1-.1 2 .9 2 2s-.9 2-2 2c-.2.1-.3.1-.5.1zM53.4 89.9h-.5c-1.1 0-2-.9-2-2s.9-2 2-2c5.6 0 10.6-.8 11.9-1.7.9-.6 2.2-.3 2.8.6.6.9.3 2.2-.6 2.8-2.6 1.6-8.6 2.3-13.6 2.3zM74.9 59.9h-8c-1.1 0-2-.9-2-2v-5c0-1.1.9-2 2-2s2 .9 2 2v3h4v-29h-4v16c0 1.1-.9 2-2 2s-2-.9-2-2v-18c0-1.1.9-2 2-2h8c1.1 0 2 .9 2 2v33c0 1.1-.9 2-2 2z" class="st0"/>
  <path d="M75.9 92.9h-10c-1.1 0-2-.9-2-2v-5.2c0-3.8 3.1-6.8 7-6.8s7 3 7 6.8v5.2c0 1.1-.9 2-2 2zm-8-4h6v-3.2c0-1.6-1.3-2.8-3-2.8s-3 1.2-3 2.8v3.2zM53.9 112.9c-1.3 0-2.6-.5-3.5-1.5-.9-.9-1.5-2.2-1.5-3.5s.5-2.6 1.5-3.5c.9-.9 2.2-1.5 3.5-1.5s2.6.5 3.5 1.5c.9.9 1.5 2.2 1.5 3.5s-.5 2.6-1.5 3.5c-.9.9-2.2 1.5-3.5 1.5zm0-6c-.2 0-.5 0-.7.3-.3.3-.3.6-.3.7s0 .5.3.7c.3.3.6.3.7.3s.5 0 .7-.3c.3-.3.3-.6.3-.7s0-.5-.3-.7c-.3-.3-.6-.3-.7-.3zM87.9 112.9c-1.3 0-2.6-.5-3.5-1.5-.9-.9-1.5-2.2-1.5-3.5s.5-2.6 1.5-3.5c.9-.9 2.2-1.5 3.5-1.5s2.6.5 3.5 1.5c.9.9 1.5 2.2 1.5 3.5s-.5 2.6-1.5 3.5c-.9.9-2.2 1.5-3.5 1.5zm0-6c-.2 0-.5 0-.7.3-.3.3-.3.6-.3.7s0 .5.3.7c.3.3.6.3.7.3s.5 0 .7-.3c.3-.3.3-.6.3-.7s0-.5-.3-.7c-.3-.3-.6-.3-.7-.3z" class="st0"/>
  <path d="M84.9 109.9h-28c-1.1 0-2-.9-2-2s.9-2 2-2h28c1.1 0 2 .9 2 2s-.9 2-2 2z" class="st0"/>
  <path d="M55.7 107c-.4 0-.8-.1-1.1-.3-.9-.6-1.2-1.9-.5-2.8l10.2-15.2c.6-.9 1.9-1.2 2.8-.5.9.6 1.2 1.9.5 2.8l-10.2 15.2c-.4.5-1.1.8-1.7.8zM86.1 107c-.6 0-1.3-.3-1.7-.9L74.2 91c-.6-.9-.4-2.2.5-2.8.9-.6 2.2-.4 2.8.5l10.2 15.2c.6.9.4 2.2-.5 2.8-.4.2-.8.3-1.1.3zM70.9 109.9c-1.1 0-2-.9-2-2v-17c0-1.1.9-2 2-2s2 .9 2 2v17c0 1.1-.9 2-2 2z" class="st0"/>
  <path d="M64.9 108.9c-1.1 0-2-.9-2-2v-15c0-1.1.9-2 2-2s2 .9 2 2v15c0 1.1-.9 2-2 2zM76.9 109.9c-1.1 0-2-.9-2-2v-16c0-1.1.9-2 2-2s2 .9 2 2v16c0 1.1-.9 2-2 2zM82.9 109.9c-1.1 0-2-.9-2-2v-7c0-1.1.9-2 2-2s2 .9 2 2v7c0 1.1-.9 2-2 2zM58.9 109.9c-1.1 0-2-.9-2-2v-7c0-1.1.9-2 2-2s2 .9 2 2v7c0 1.1-.9 2-2 2zM53.4 81.8c-4.5 0-8.9-.8-10.8-2.7-1.3-1.4-2-3.1-1.8-5.1.3-3.7 3.3-7.4 6.1-9.4 4.7-3.5 15.6-3.9 19.4.3 1.4 1.6 1.6 5.2 1.6 6.7.2 6.4-1.4 7.5-1.9 7.8-2.4 1.4-7.6 2.4-12.6 2.4zm3.7-16c-2.9 0-6.1.7-7.9 2-2.4 1.8-4.3 4.5-4.4 6.5-.1.8.1 1.4.7 2 2.1 2.1 14.3 2 17.9-.1.3-.7.4-2.8.4-4.6 0-1.7-.2-3.6-.5-4.1-1.1-1.2-3.6-1.7-6.2-1.7zM88.2 81.8h-.9c-4-.1-9.1-.8-11.6-2.4-.5-.3-2.1-1.4-1.9-7.9 0-1.4.1-5 1.6-6.6 3.8-4.2 14.6-3.7 19.4-.3 2.8 2 5.8 5.8 6.1 9.4.2 2-.5 3.7-1.8 5.1-2.4 2.3-7.5 2.7-10.9 2.7zm-10-5.7c3.7 2.1 15.9 2.2 17.9.1.5-.5.7-1.1.7-2-.2-2-2-4.8-4.4-6.5-3.4-2.5-11.8-2.7-14-.3-.3.5-.6 2.4-.5 4-.1 1.9 0 4 .3 4.7zM90 107.7c-.3 0-.7-.1-1-.3-1-.6-1.3-1.8-.7-2.7L96 91.4c.6-1 1.8-1.3 2.7-.7 1 .6 1.3 1.8.7 2.7l-7.7 13.3c-.3.7-1 1-1.7 1zM49.8 44.3c-.5 0-1-.2-1.4-.5-.8-.8-.9-2-.1-2.8 4.7-5.1 11.2-8.4 18.3-9.4 1.1-.2 2.1.6 2.3 1.7.2 1.1-.6 2.1-1.7 2.3-6.2.9-11.9 3.8-15.9 8.2-.4.3-1 .5-1.5.5zM44.7 52.1c-.3 0-.5-.1-.8-.2-1-.4-1.5-1.6-1.1-2.6.4-1 .9-2 1.4-2.9.5-1 1.8-1.3 2.7-.8 1 .5 1.3 1.8.8 2.7-.5.8-.9 1.7-1.2 2.5-.2.8-1 1.3-1.8 1.3zM51.8 107.7c-.7 0-1.4-.4-1.7-1l-7.7-13.3c-.6-1-.2-2.2.7-2.7 1-.6 2.2-.2 2.7.7l7.7 13.3c.6 1 .2 2.2-.7 2.7-.4.3-.7.3-1 .3zM99 107.8c-1 0-1.8-.7-2-1.7-.2-1.1.6-2.1 1.7-2.3 6.8-.9 15.5-4.1 16.5-4.6s2.2-.1 2.7.9.1 2.2-.9 2.7c-1.6.8-10.7 4-17.8 5H99zM43.1 107.8h-.3c-7.2-1-16.7-4.3-18.1-5.1-1-.5-1.4-1.7-.9-2.7.5-1 1.7-1.4 2.7-.9 1 .5 10 3.7 16.8 4.7 1.1.2 1.9 1.2 1.7 2.3-.1 1-.9 1.7-1.9 1.7z" class="st0"/>
  <path d="M105.9 69.9c-.8 0-1.5-.4-1.8-1.2-.3-.7-7.9-16.4-28.5-9-1 .4-2.2-.2-2.6-1.2-.4-1 .2-2.2 1.2-2.6 24.1-8.7 33.4 10.8 33.5 11 .5 1 0 2.2-1 2.7-.3.2-.5.3-.8.3zM35.9 69.9c-.3 0-.6-.1-.8-.2-1-.5-1.4-1.6-1-2.7.1-.2 9.4-19.7 33.5-11 1 .4 1.6 1.5 1.2 2.6-.4 1-1.5 1.6-2.6 1.2-20.7-7.5-28.2 8.3-28.5 9-.3.6-1.1 1.1-1.8 1.1z" class="st0"/>
  <path d="M70.9 118.9c-11.9 0-34.6-1.4-44.5-6.6-2.7-1.4-5.2-4.9-2-13.7l9.5-31v-5.7c0-18.8 14.1-34.6 32.8-36.8 1.1-.1 2.1.7 2.2 1.8.1 1.1-.7 2.1-1.8 2.2-16.7 1.9-29.2 16-29.2 32.8v6.3l-9.8 31.7c-.8 2.2-2.5 7.5.1 8.8 9.3 4.8 31.2 6.1 42.7 6.1 11.5 0 33.4-1.3 42.7-6.1 2.5-1.3.9-6.6.1-8.8v-.1L104 68.2V62c0-16.9-12.5-30.9-29.2-32.9-1.1-.1-1.9-1.1-1.8-2.2.1-1.1 1.1-1.9 2.2-1.8 18.7 2.1 32.7 17.9 32.7 36.8v5.8l9.5 31c3.3 8.8.7 12.3-2 13.7-9.9 5.1-32.7 6.5-44.5 6.5z" class="st0"/>
</svg>
