<svg xmlns="http://www.w3.org/2000/svg" id="Layer_1" viewBox="0 0 141.7 141.7">
  <style>
    .st0{fill:#FFE81F;}
  </style>
  <path d="M56 70.7c-.5 0-1-.2-1.4-.6L37.2 52.7c-.8-.8-.8-2 0-2.8.8-.8 2-.8 2.8 0l17.4 17.4c.8.8.8 2 0 2.8-.3.4-.8.6-1.4.6zM63.8 64.3c-.5 0-1-.2-1.4-.6L44.5 45.8c-.8-.8-.8-2 0-2.8.8-.8 2-.8 2.8 0l17.9 17.9c.8.8.8 2 0 2.8-.4.4-.9.6-1.4.6zM45.4 99.3c-.8 0-1.5-.3-2.1-.9-1.2-1.2-1.2-3.1 0-4.2 1.2-1.2 3.1-1.2 4.2 0 1.2 1.2 1.2 3.1 0 4.2-.5.6-1.3.9-2.1.9zm0-4c-.3 0-.5.1-.7.3-.4.4-.4 1 0 1.4.4.4 1 .4 1.4 0 .4-.4.4-1 0-1.4-.1-.2-.4-.3-.7-.3zM52.5 92.2c-.8 0-1.5-.3-2.1-.9-1.2-1.2-1.2-3.1 0-4.2 1.2-1.2 3.1-1.2 4.2 0 1.2 1.2 1.2 3.1 0 4.2-.6.6-1.3.9-2.1.9zm0-4c-.3 0-.5.1-.7.3-.4.4-.4 1 0 1.4.4.4 1 .4 1.4 0 .4-.4.4-1 0-1.4-.2-.2-.4-.3-.7-.3zM38.5 87.6c-1.7 0-3-1.3-3-3s1.3-3 3-3 3 1.3 3 3-1.4 3-3 3zm0-4c-.6 0-1 .4-1 1s.4 1 1 1 1-.4 1-1-.5-1-1-1zM47.5 83.4c-1.7 0-3-1.3-3-3s1.3-3 3-3 3 1.3 3 3-1.4 3-3 3zm0-4c-.6 0-1 .4-1 1s.4 1 1 1 1-.4 1-1-.5-1-1-1zM57.1 106.3c-1.7 0-3-1.3-3-3s1.3-3 3-3 3 1.3 3 3-1.3 3-3 3zm0-4c-.6 0-1 .4-1 1s.4 1 1 1 1-.4 1-1-.4-1-1-1zM61.4 97.3c-1.7 0-3-1.3-3-3s1.3-3 3-3 3 1.3 3 3-1.4 3-3 3zm0-4c-.6 0-1 .4-1 1s.4 1 1 1 1-.4 1-1-.5-1-1-1zM72.7 65.4c-.5 0-1-.2-1.4-.6-.8-.8-.8-2 0-2.8l32.8-32.8-2-2-46 14.1c-1.1.3-2.2-.3-2.5-1.3-.3-1.1.3-2.2 1.3-2.5L102.1 23c.7-.2 1.5 0 2 .5l4.2 4.2c.8.8.8 2 0 2.8L74.1 64.8c-.4.4-.9.6-1.4.6z" class="st0"/>
  <path d="M102.7 46.7c-.5 0-1-.2-1.4-.6l-5.7-5.7c-.8-.8-.8-2 0-2.8.8-.8 2-.8 2.8 0l5.7 5.7c.8.8.8 2 0 2.8-.4.4-.9.6-1.4.6zM104.3 77.9c-.1 0-.1 0 0 0-1.2 0-2-1.1-2-2.2.2-8.5-2.5-16.8-7.6-23.2-.7-.9-.6-2.2.3-2.8.9-.7 2.1-.6 2.8.3 5.7 7.1 8.8 16.4 8.5 25.9-.1 1-1 2-2 2z" class="st0"/>
  <path d="M105.8 76.1c-.2 0-.4 0-.6-.1-1.1-.3-1.6-1.5-1.3-2.5l10.7-33.9-2-2-33.2 33.2c-.8.8-2 .8-2.8 0-.8-.8-.8-2 0-2.8l34.6-34.6c.8-.8 2-.8 2.8 0l4.2 4.2c.5.5.7 1.3.5 2l-11.1 35.1c-.2.9-1 1.4-1.8 1.4z" class="st0"/>
  <path d="M107.7 88.4c-.2 0-.3 0-.5-.1l-25.8-6c-1.1-.2-1.7-1.3-1.5-2.4.3-1.1 1.3-1.7 2.4-1.5l24.7 5.7 7-7c1.2-1.2 1.2-3.1 0-4.2-1.2-1.2-3.1-1.2-4.2 0l-4.2 4.1c-.5.5-1.2.7-1.9.5l-26.2-6.3c-1.1-.3-1.7-1.3-1.5-2.4s1.3-1.7 2.4-1.5l25.1 6 3.4-3.3c2.7-2.7 7.2-2.7 9.9 0s2.7 7.2 0 9.9l-7.8 7.8c-.3.5-.8.7-1.3.7z" class="st0"/>
  <path d="M97.4 97.9c-.5 0-1-.2-1.4-.6L77 78.5c-.8-.8-.8-2 0-2.8.8-.8 2-.8 2.8 0l19 18.9c.8.8.8 2 0 2.8-.3.3-.9.5-1.4.5zM90.5 105.2c-.5 0-1-.2-1.4-.6L70.7 86.1c-.8-.8-.8-2.1 0-2.8.8-.8 2.1-.8 2.8 0L92 101.8c.8.8.8 2.1 0 2.8-.4.4-.9.6-1.5.6z" class="st0"/>
  <path d="M66.9 87.9c-3.6 0-7.2-1.4-9.9-4.1-5.5-5.5-5.5-14.3 0-19.8s14.3-5.5 19.8 0 5.5 14.3 0 19.8c-2.7 2.7-6.3 4.1-9.9 4.1zm0-24c-2.6 0-5.1 1-7.1 2.9-3.9 3.9-3.9 10.2 0 14.1 3.9 3.9 10.2 3.9 14.1 0 3.9-3.9 3.9-10.2 0-14.1-1.9-2-4.5-2.9-7-2.9z" class="st0"/>
  <path d="M30.8 70.9c-1.1 0-2-.9-2-2s.9-2 2-2l25.2-.2c1.1 0 2 .9 2 2s-.9 2-2 2l-25.2.2zM72.8 113c-1.1 0-2-.9-2-1.9l-.7-26.3c0-1.1.8-2 1.9-2.1h.1c1.1 0 2 .9 2 1.9l.7 26.3c.1 1.1-.8 2-2 2.1.1 0 .1 0 0 0z" class="st0"/>
  <path d="M67.1 118.9c-11.4 0-23.1-4.9-31.2-13-8.4-8.4-13-19.5-13-31.4 0-.6.2-1.1.6-1.5l5.5-5.1c1.4-7.9 5.3-15.3 11-21.1 14.1-14.1 36.4-15.3 51.9-2.9.9.7 1 1.9.3 2.8-.7.9-1.9 1-2.8.3-13.9-11.1-33.9-10-46.6 2.6-5.3 5.3-8.9 12.3-10 19.6-.1.4-.3.9-.6 1.2l-5.4 5c.2 10.5 4.4 20.3 11.9 27.7 7.1 7.1 17.6 11.6 27.6 11.9l5.4-5.3c.3-.3.7-.5 1.1-.6 7.5-1.1 14.2-4.5 19.6-9.9 4-4 7-9 8.7-14.4.3-1.1 1.4-1.6 2.5-1.3 1.1.3 1.6 1.4 1.3 2.5-1.9 6-5.2 11.6-9.7 16.1-5.8 5.8-13.1 9.6-21.1 10.9l-5.5 5.5c-.5.2-1 .4-1.5.4z" class="st0"/>
</svg>
