<svg xmlns="http://www.w3.org/2000/svg" id="Layer_1" viewBox="0 0 141.7 141.7">
  <style>
    .st0{fill:#FFE81F;}
  </style>
  <path d="M87.9 101.5c-.5 0-1-.1-1.5-.3-1.2-.5-2.3-1.3-3.6-2.2-1.2-.9-2.7-2-4.7-3.1-2.6-1.5-4.8-2.1-7.3-2.1-2.7 0-4.7.8-7 2.1-2 1.1-3.5 2.2-4.7 3.1-1.3.9-2.3 1.7-3.6 2.2-1.8.7-3.9 0-4.9-1.7L40 81.4c-1.1-1.8-2.3-6.3 2.1-10.5.8-.8 2.1-.7 2.8.1.8.8.7 2.1-.1 2.8-3.1 2.9-1.5 5.4-1.5 5.5l10.8 18.2c.8-.3 1.6-.9 2.7-1.7 1.3-.9 2.9-2.1 5.1-3.4 2.8-1.6 5.4-2.6 9-2.6 4.1 0 7.1 1.4 9.3 2.6 2.3 1.3 3.9 2.4 5.1 3.4 1.1.8 1.9 1.4 2.6 1.7l10.7-18.2c0-.1.1-.1.1-.2.1-.2 1.3-2.2-1.8-5.4-.8-.8-.8-2 0-2.8.8-.8 2-.8 2.8 0 4.5 4.5 3.5 8.8 2.3 10.5L91.4 99.5c-.8 1.3-2.1 2-3.5 2zM92 111.7c-1 0-2-.4-2.8-1.2-.8-.8-1.2-1.8-1.2-2.8s.4-2.1 1.2-2.8c1.6-1.6 4.1-1.6 5.7 0 .8.8 1.2 1.8 1.2 2.8s-.4 2.1-1.2 2.8c-.9.8-1.9 1.2-2.9 1.2zM43.4 97.1c-.7 0-1.3-.3-1.7-1l-5.9-9.9c-.6-.9-.3-2.2.7-2.7 1-.6 2.2-.3 2.7.7l5.9 9.9c.6.9.3 2.2-.7 2.7-.3.2-.6.3-1 .3zM98.7 97.1c-.3 0-.7-.1-1-.3-.9-.6-1.3-1.8-.7-2.7l5.9-9.9c.6-.9 1.8-1.3 2.7-.7.9.6 1.3 1.8.7 2.7l-5.9 9.9c-.3.7-1 1-1.7 1zM70.9 118.9c-5.1 0-9-2.3-11.3-4.2-.9-.7-1-2-.3-2.8.7-.9 2-1 2.8-.3 1.9 1.5 4.9 3.3 8.8 3.3 3 0 6.1-1.2 8.8-3.3.9-.7 2.1-.5 2.8.3.7.9.5 2.1-.3 2.8-3.4 2.7-7.4 4.2-11.3 4.2z" class="st0"/>
  <path d="M92.1 118.8c-4.6 0-9.2-2.5-11.6-3.7l-.5-.3c-4.2-2.2-8.9-2-8.9-2h-.2s-4.8-.2-9 2l-.4.2c-4.1 2.2-15 7.9-20.5-1.4-4.4-7.5-11.1-20.7-11.7-21.8-.8-1.3-7.1-12.8 4.6-26.8V54.8c0-17.6 14.4-31.9 32.1-31.9h10c17.7 0 32.1 14.3 32.1 31.9V65c6.2 7.4 7.2 14.2 6.8 18.7-.3 4.5-2.1 7.6-2.4 8.2-.6 1.2-7.2 14.4-11.7 21.9-2.3 3.8-5.5 5-8.7 5zm-20.8-9.9c1.5 0 6.1.2 10.4 2.4l.6.3c6 3.1 11.9 5.3 15 .2 4.5-7.7 11.5-21.6 11.6-21.7l.1-.2c.3-.4 6.4-10.3-4.5-22.8l-.5-.6V54.8c0-15.4-12.6-27.9-28.1-27.9h-10c-15.5 0-28.1 12.5-28.1 27.9v11.7l-.5.6c-10.7 12.5-4.9 22.3-4.6 22.7l.1.2c.1.1 7 14 11.6 21.7 3.1 5.2 9.1 3 15.2-.1l.4-.2c4.8-2.5 10.1-2.5 10.9-2.4.1-.1.2-.1.4-.1z" class="st0"/>
  <path d="M105.9 64.9h-70c-1.1 0-2-.9-2-2s.9-2 2-2h70c1.1 0 2 .9 2 2s-.9 2-2 2zM105.9 58.9h-70c-1.1 0-2-.9-2-2s.9-2 2-2h70c1.1 0 2 .9 2 2s-.9 2-2 2z" class="st0"/>
  <path d="M90.9 77.9c-5.2 0-9.3-2.3-12.8-4.3-2.7-1.5-5-2.8-7.2-2.8s-4.5 1.3-7.2 2.8c-3.6 2-7.6 4.3-12.8 4.3-8 0-11.6-7.5-13.8-12-.4-.8-.7-1.5-1.1-2.1-.5-1-.2-2.2.8-2.7s2.2-.2 2.7.8c.4.7.8 1.5 1.2 2.3 2.6 5.3 5.1 9.7 10.2 9.7 4.2 0 7.6-1.9 10.9-3.8 3-1.7 5.9-3.3 9.1-3.3s6.1 1.6 9.1 3.3c3.3 1.9 6.7 3.8 10.9 3.8 5.1 0 7.6-4.4 10.2-9.8.4-.8.8-1.6 1.2-2.3.5-1 1.8-1.3 2.7-.8 1 .5 1.3 1.8.8 2.7-.3.6-.7 1.3-1.1 2.1-2.2 4.5-5.8 12.1-13.8 12.1z" class="st0"/>
</svg>
