<svg xmlns="http://www.w3.org/2000/svg" id="Layer_1" viewBox="0 0 141.7 141.7">
  <style>
    .st0{fill:#FFE81F;}
  </style>
  <path d="M57.9 52.9c-1.7 0-3-1.3-3-3s1.3-3 3-3 3 1.3 3 3-1.4 3-3 3zm0-4c-.6 0-1 .4-1 1s.4 1 1 1 1-.4 1-1-.5-1-1-1z" class="st0"/>
  <path d="M57.9 64.9c-8.3 0-15-6.7-15-15s6.7-15 15-15 15 6.7 15 15-6.8 15-15 15zm0-26c-6.1 0-11 4.9-11 11s4.9 11 11 11 11-4.9 11-11-5-11-11-11zM115.9 49.9c-1.7 0-3-1.3-3-3s1.3-3 3-3 3 1.3 3 3-1.4 3-3 3zm0-4c-.6 0-1 .4-1 1s.4 1 1 1 1-.4 1-1-.5-1-1-1zM106.9 116.9c-1.7 0-3-1.3-3-3s1.3-3 3-3 3 1.3 3 3-1.4 3-3 3zm0-4c-.6 0-1 .4-1 1s.4 1 1 1 1-.4 1-1-.5-1-1-1zM108.9 36.9c-3.9 0-7-3.1-7-7s3.1-7 7-7 7 3.1 7 7-3.2 7-7 7zm0-10c-1.7 0-3 1.3-3 3s1.3 3 3 3 3-1.3 3-3-1.4-3-3-3zM116.9 72.9h-92c-1.1 0-2-.9-2-2s.9-2 2-2h92c1.1 0 2 .9 2 2s-.9 2-2 2zM96.9 33.9h-13c-1.1 0-2-.9-2-2s.9-2 2-2h13c1.1 0 2 .9 2 2s-.9 2-2 2zM108.9 48.9h-15c-1.1 0-2-.9-2-2s.9-2 2-2h15c1.1 0 2 .9 2 2s-.9 2-2 2zM106.9 54.9h-16c-1.1 0-2-.9-2-2s.9-2 2-2h16c1.1 0 2 .9 2 2s-.9 2-2 2zM100.9 40.9h-10c-1.1 0-2-.9-2-2s.9-2 2-2h10c1.1 0 2 .9 2 2s-.9 2-2 2zM93.9 118.9h-23c-1.1 0-2-.9-2-2s.9-2 2-2h23c1.1 0 2 .9 2 2s-.9 2-2 2zM112.9 99.9h-15c-1.1 0-2-.9-2-2s.9-2 2-2h15c1.1 0 2 .9 2 2s-.9 2-2 2zM109.9 93.9h-21c-1.1 0-2-.9-2-2s.9-2 2-2h21c1.1 0 2 .9 2 2s-.9 2-2 2zM104.9 106.9h-10c-1.1 0-2-.9-2-2s.9-2 2-2h10c1.1 0 2 .9 2 2s-.9 2-2 2zM116.5 66.9h-10.6c-1.1 0-2-.9-2-2s.9-2 2-2h10.6c1.1 0 2 .9 2 2s-.9 2-2 2zM115.5 83.9h-6.6c-1.1 0-2-.9-2-2s.9-2 2-2h6.6c1.1 0 2 .9 2 2s-.9 2-2 2zM116.5 78.9h-4.6c-1.1 0-2-.9-2-2s.9-2 2-2h4.6c1.1 0 2 .9 2 2s-.9 2-2 2zM73 108.8c-1.1 0-1.9-.8-2-1.9-.1-1.1.8-2 1.9-2.1.6 0 1.2-.1 1.7-.1 1.1-.1 2.1.7 2.2 1.8.1 1.1-.7 2.1-1.8 2.2-.6.1-1.3.1-1.9.2 0-.1 0-.1-.1-.1zM65.9 108.9h-.3c-10.1-1.5-19.7-7.5-25.8-16.1-.6-.9-.4-2.2.5-2.8.9-.6 2.2-.4 2.8.5 5.4 7.7 14.1 13.1 23.1 14.4 1.1.2 1.8 1.2 1.7 2.3-.2 1-1.1 1.7-2 1.7zM105.9 78.9h-2c-1.1 0-2-.9-2-2s.9-2 2-2h2c1.1 0 2 .9 2 2s-.9 2-2 2zM100.9 83.9h-2c-1.1 0-2-.9-2-2s.9-2 2-2h2c1.1 0 2 .9 2 2s-.9 2-2 2zM82.9 93.9h-2c-1.1 0-2-.9-2-2s.9-2 2-2h2c1.1 0 2 .9 2 2s-.9 2-2 2zM86.9 48.9h-2c-1.1 0-2-.9-2-2s.9-2 2-2h2c1.1 0 2 .9 2 2s-.9 2-2 2z" class="st0"/>
  <path d="M70.9 118.9c-26.5 0-48-21.5-48-48s21.5-48 48-48c6.2 0 12.2 1.2 17.9 3.4.2.1.3.2.5.3.4.3 10.5 7.8 14.8 29 1.4.6 4.9 1.7 11.1 1.2 1-.1 1.8.5 2.1 1.5l.1.3c1.1 4.1 1.6 8.1 1.6 12.2 0 5.8-1 11.5-3.1 16.9-.3.8-1 1.3-1.9 1.3-5.6-.2-7.4.7-7.8 1-3.7 18.6-12.1 23.2-13.2 23.7-6.9 3.4-14.3 5.2-22.1 5.2zm0-92c-24.3 0-44 19.7-44 44s19.7 44 44 44c7.2 0 14-1.6 20.3-4.9 0 0 .1 0 .1-.1.2-.1 7.6-3.8 11-21 .2-1.6 1.9-4 10.3-4 1.6-4.5 2.4-9.3 2.4-14.1 0-3.4-.4-6.6-1.2-9.9-8.4.4-12.2-2-12.6-2.3-.4-.3-.7-.8-.8-1.3C96.7 38.6 88.3 31 87 29.9c-5.1-2-10.6-3-16.1-3z" class="st0"/>
</svg>
