<svg xmlns="http://www.w3.org/2000/svg" id="Layer_1" viewBox="0 0 141.7 141.7">
  <style>
    .st0{fill:#FFE81F;}
  </style>
  <path d="M70.9 116.2c-5.5 0-10-4.5-10-10 0-5 3.9-14.6 10-14.6s10 9.6 10 14.6c0 5.5-4.5 10-10 10zm0-20.6c-2.6 0-6 6.6-6 10.6 0 3.3 2.7 6 6 6s6-2.7 6-6c0-4.1-3.4-10.6-6-10.6zM91.9 107.9c-1.9 0-3.6-.7-4.9-2.1-1.3-1.3-2.1-3.1-2.1-4.9s.7-3.6 2.1-4.9c1.3-1.3 3.1-2.1 4.9-2.1s3.6.7 4.9 2.1c1.3 1.3 2.1 3.1 2.1 4.9s-.7 3.6-2.1 4.9c-1.3 1.3-3.1 2.1-4.9 2.1zm0-10c-.8 0-1.6.3-2.1.9-.6.6-.9 1.3-.9 2.1s.3 1.6.9 2.1c1.1 1.1 3.1 1.1 4.2 0 .6-.6.9-1.3.9-2.1s-.3-1.6-.9-2.1c-.6-.6-1.3-.9-2.1-.9zM49.9 107.9c-1.9 0-3.6-.7-4.9-2.1-1.3-1.3-2.1-3.1-2.1-4.9s.7-3.6 2.1-4.9c1.3-1.3 3.1-2.1 4.9-2.1s3.6.7 4.9 2.1c1.3 1.3 2.1 3.1 2.1 4.9s-.7 3.6-2.1 4.9c-1.3 1.3-3.1 2.1-4.9 2.1zm0-10c-.8 0-1.6.3-2.1.9-.6.6-.9 1.3-.9 2.1s.3 1.6.9 2.1c1.1 1.1 3.1 1.1 4.2 0 .6-.6.9-1.3.9-2.1s-.3-1.6-.9-2.1c-.6-.6-1.3-.9-2.1-.9z" class="st0"/>
  <path d="M88.9 118.9c-3.6 0-7.2-1.4-9.9-4.1-1-1-2.1-2.6-2.8-3.9-.5-1-.1-2.2.9-2.7s2.2-.1 2.7.9 1.4 2.2 2.1 2.9c3.9 3.9 10.2 3.9 14.1 0l5-5c2.2-2.2 3.2-5.2 2.9-8.2-.1-.5.1-1 .4-1.4 2.8-3.8 6.7-10.2 6.7-12.5 0-3.3-2.7-6-6-6-1.1 0-2-.9-2-2s.9-2 2-2h1.7l-1.5-12h-.2c-1.1 0-2-.9-2-2v-12c0-12.1-9.9-22-22-22H61c-12.1 0-22 9.9-22 22v12c0 1.1-.9 2-2 2h-.2l-1.5 12H37c1.1 0 2 .9 2 2s-.9 2-2 2c-3.3 0-6 2.7-6 6 0 2.2 3.9 8.6 6.7 12.5.3.4.4.9.4 1.4-.3 3.1.7 6 2.9 8.2l5 5c3.9 3.9 10.2 3.9 14.1 0 .7-.7 1.6-2 2.1-2.9.5-1 1.7-1.4 2.7-.9 1 .5 1.4 1.7.9 2.7-.7 1.3-1.9 2.9-2.8 3.9-5.5 5.5-14.3 5.5-19.8 0l-5-5c-2.8-2.8-4.3-6.7-4.1-10.7-1.9-2.6-7-10.3-7-14.2 0-3.3 1.6-6.2 4-8v-.3l2-16c.1-1 1-1.8 2-1.8v-10c0-14.3 11.7-26 26-26h20c14.3 0 26 11.7 26 26v10c1 0 1.9.8 2 1.8l2 16v.3c2.4 1.8 4 4.7 4 8 0 3.9-5.2 11.6-7 14.2.2 4-1.2 7.9-4.1 10.7l-5 5c-3 2.7-6.5 4.1-10.1 4.1z" class="st0"/>
  <path d="M91.9 74.9c-6.7 0-17-6-17-14 0-1.1.9-2 2-2h20c1.1 0 2 .9 2 2v7c0 3.8-3.2 7-7 7zm-12.7-12c1.6 4.4 8.4 8 12.6 8 1.7 0 3-1.3 3-3v-5H79.2zM49.9 74.9c-3.9 0-7-3.1-7-7v-7c0-1.1.9-2 2-2h20c1.1 0 2 .9 2 2 0 8-10.4 14-17 14zm-3-12v5c0 1.7 1.3 3 3 3 4.3 0 11-3.6 12.6-8H46.9zM90.9 89.9c-2.8 0-5.6-1.6-9.4-3.9-1-.6-2.1-1.2-3.3-1.9-2.1-1.2-4.4-2.2-7.3-2.2s-5.2 1.1-7.3 2.2c-1.2.7-2.3 1.3-3.3 1.9-3.8 2.2-6.6 3.9-9.4 3.9-1.1 0-2-.9-2-2s.9-2 2-2c1.8 0 4.2-1.5 7.4-3.3 1-.6 2.2-1.3 3.4-1.9 2.4-1.4 5.4-2.8 9.2-2.8s6.8 1.4 9.2 2.8c1.2.7 2.3 1.3 3.4 1.9 3.2 1.8 5.6 3.3 7.4 3.3 1.1 0 2 .9 2 2s-.9 2-2 2zM104.9 54.9h-68c-1.1 0-2-.9-2-2s.9-2 2-2h68c1.1 0 2 .9 2 2s-.9 2-2 2zM104.8 48.9H36.9c-1.1 0-2-.9-2-2s.9-2 2-2h67.8c1.1 0 2 .9 2 2s-.8 2-1.9 2z" class="st0"/>
</svg>
