<svg xmlns="http://www.w3.org/2000/svg" id="Layer_1" viewBox="0 0 141.7 141.7">
  <style>
    .st0{fill:#FFE81F;}
  </style>
  <path d="M82.7 118.8h-4.8c-1.1 0-2-.9-2-2s-.9-2-2-2h-6c-1.1 0-2 .9-2 2s-.9 2-2 2H59c-1.4 0-2.7-.8-3.5-2-.5-.9-1.3-2.3-2.2-4-7.9-14.6-13-22.4-15.1-23h-1.8c-1.9 0-3.8-.9-4.9-2.5-1.1-1.5-1.4-3.5-.8-5.3l3.1-14.2V55c0-17.7 14.4-32 32-32h10c17.6 0 32 14.4 32 32v12.8l3.1 14.2c.6 1.8.3 3.8-.8 5.3-1.1 1.6-3 2.5-4.9 2.5h-1.8c-2.1.7-7.1 8.4-15.1 23-.9 1.7-1.7 3.1-2.2 4-.6 1.3-2 2-3.4 2zm-44.3-33c3.7 0 8.2 6.1 18.5 25.1.9 1.7 1.7 3 2.2 3.9h3.2c.8-2.3 3-4 5.7-4h6c2.6 0 4.8 1.7 5.7 4h3.2c.5-.9 1.2-2.2 2.1-3.9 10.3-19 14.8-25.1 18.5-25.1h1.8c.7 0 1.3-.3 1.6-.8.4-.5.5-1.2.3-1.8 0-.1-.1-.2-.1-.2L104 68.4V55c0-15.4-12.6-28-28-28H66c-15.4 0-28 12.6-28 28v13.4L34.9 83c0 .1 0 .2-.1.2-.2.6-.1 1.3.3 1.8s1 .8 1.6.8h1.7z" class="st0"/>
  <path d="M98 94.7h-.2C84.1 93.1 76.3 73.4 76 72.5c-.4-1 .1-2.2 1.1-2.6 1-.4 2.2.1 2.6 1.1.1.2 7.3 18.3 18.5 19.6 1.1.1 1.9 1.1 1.8 2.2-.1 1.2-1 1.9-2 1.9z" class="st0"/>
  <path d="M89.6 108.4c-.9 0-1.7-.6-1.9-1.5-.3-1.1.3-2.2 1.4-2.5l7.7-2.1-.8-9.4c-.1-1.1.7-2.1 1.8-2.1 1.1-.1 2.1.7 2.1 1.8l.9 11.1c0 .6-.1 1.1-.5 1.5-.3.3-.7.5-1.1.6l-9 2.5c-.2.1-.4.1-.6.1zM52.2 108.6c-.2 0-.4 0-.6-.1l-9.3-2.8c-.4-.1-.7-.3-.9-.6-.4-.4-.6-1-.5-1.5l.9-11.1c.1-1.1 1-1.9 2.1-1.8 1.1.1 1.9 1 1.8 2.1l-.7 9.5 7.8 2.3c1.1.3 1.7 1.4 1.4 2.5-.3.9-1.1 1.5-2 1.5zM86.9 75.8h-.3l-.3-.1c-.1 0-10.8-2.9-15.5-2.9s-15.4 2.9-15.5 2.9l-.3.1h-.3c-3.9 0-7-3.1-7-7s3.1-7 7-7h.4c.1 0 10.9 2 15.6 2 4.8 0 15.5-1.9 15.6-2h.4c3.9 0 7 3.1 7 7 .2 3.9-3 7-6.8 7zm-16-7c4.8 0 14.4 2.5 16.2 3 1.5-.1 2.8-1.4 2.8-3s-1.3-2.9-2.8-3c-1.6.3-11.4 2-16.2 2s-14.6-1.7-16.2-2c-1.6.1-2.8 1.4-2.8 3s1.2 2.9 2.8 3c1.8-.5 11.4-3 16.2-3z" class="st0"/>
  <path d="M43.7 94.7c-.5 0-.9-.2-1.3-.5-.8-.7-.9-2-.2-2.8 1.9-2.1 3-4.2 2.8-5.5 0-.4-.2-.9-.9-1.4-5.2-3.5-8.3-9.4-8.3-15.7 0-10.5 8.5-19 19-19h.2l2.3.2c4.7.9 11.2 1.8 13.5 1.8s8.8-.9 13.5-1.8h.2l2.3-.2c10.5 0 19 8.5 19 19 0 6.3-3.1 12.2-8.4 15.8-.6.5-.8 1-.8 1.3-.1 1.3.9 3.3 2.7 5.4.7.8.7 2.1-.2 2.8s-2.1.6-2.8-.2c-1.9-2.1-4-5.3-3.7-8.5.2-1.7 1-3.1 2.5-4.2 4.2-2.9 6.7-7.5 6.7-12.5 0-8.2-6.7-15-14.9-15L85 54c-3.9.7-11.2 1.8-14.1 1.8S60.7 54.7 56.7 54l-2-.2c-8.2 0-14.9 6.8-14.9 15 0 5 2.5 9.6 6.6 12.4 1.5 1.1 2.4 2.6 2.5 4.2.3 3.2-1.9 6.4-3.8 8.6-.3.5-.8.7-1.4.7z" class="st0"/>
  <path d="M92.1 80.5c-.7 0-1.4-.4-1.8-1-.5-1-.2-2.2.8-2.7 2.9-1.6 4.7-4.6 4.7-7.9 0-4.9-4-9-8.9-9l-.9.1c-1 .2-10.8 1.9-15.2 1.9S56.7 60.2 55.6 60l-.9-.1c-4.9 0-8.9 4.1-8.9 9 0 3.3 1.8 6.3 4.7 7.9 1 .5 1.3 1.7.8 2.7-.5 1-1.7 1.3-2.7.8-4.2-2.3-6.8-6.7-6.8-11.4 0-7.2 5.8-13 13-13h.2l1.3.1c4 .7 11.5 1.9 14.6 1.9s10.6-1.1 14.6-1.9h.2l1.3-.1c7.2 0 13 5.8 13 13 0 4.8-2.6 9.1-6.8 11.4-.4.1-.8.2-1.1.2z" class="st0"/>
  <path d="M43.7 94.7c-1 0-1.8-.7-2-1.7-.2-1.1.6-2.1 1.7-2.3 11.1-1.5 18-19.4 18-19.6.4-1 1.5-1.6 2.6-1.2 1 .4 1.6 1.5 1.2 2.6-.3.8-7.8 20.3-21.2 22.2h-.3z" class="st0"/>
</svg>
