<svg xmlns="http://www.w3.org/2000/svg" id="Layer_1" viewBox="0 0 141.7 141.7">
  <style>
    .st0{fill:#FFE81F;}
  </style>
  <path d="M35.1 95.9h-4.5c-1.1 0-2-.9-2-2v-45c0-1.1.9-2 2-2h8.8c1.1 0 2 .9 2 2s-.9 2-2 2h-6.8v41h2.5c1.1 0 2 .9 2 2s-.9 2-2 2z" class="st0"/>
  <path d="M34.7 50.9c-1.1 0-2-.9-2-2v-24c0-1.1.9-2 2-2s2 .9 2 2v24c0 1.1-.9 2-2 2z" class="st0"/>
  <path d="M107.6 61.9c-1.1 0-2-.9-2-2 0-18.2-14.8-33-33-33s-33 14.8-33 33c0 1.1-.9 2-2 2s-2-.9-2-2c0-20.4 16.6-37 36.9-37h.1c20.4 0 36.9 16.6 36.9 37 .1 1.1-.8 2-1.9 2z" class="st0"/>
  <path d="M81.7 118.9h-18c-.4 0-.7-.1-1-.3l-29-17c-.7-.4-1-1.1-1-1.9l3-40c.1-1.1 1-1.9 2.1-1.8 1.1.1 1.9 1 1.8 2.1l-2.9 38.8 27.5 16.1h16.9L109 98.8 105.7 60c-.1-1.1.7-2.1 1.8-2.2 1.1-.1 2.1.7 2.2 1.8l3.4 40c.1.8-.3 1.5-1 1.9l-29.4 17c-.3.3-.7.4-1 .4z" class="st0"/>
  <path d="M107.4 57.9H38c-1.1 0-2-.9-2-2s.9-2 2-2h69.4c1.1 0 2 .9 2 2s-.9 2-2 2zM81.7 118.9c-1.1 0-2-.9-2-2v-42c0-.9.6-1.6 1.4-1.9.1 0 10.9-3.6 18.7-6.5l-.3-2.6h-54l-.2 2.5c7.8 2.9 18.8 6.5 19 6.5.8.3 1.4 1 1.4 1.9v42c0 1.1-.9 2-2 2s-2-.9-2-2V76.3c-3-1.1-12.8-4.2-19.2-6.7-.8-.3-1.3-1.1-1.3-2l.5-5.9c.1-1 1-1.8 2-1.8h57.5c1 0 1.9.8 2 1.8l.7 5.9c.1.9-.4 1.8-1.3 2.1-6.3 2.4-16 5.5-19 6.7V117c.1 1-.8 1.9-1.9 1.9z" class="st0"/>
  <path d="M57.7 115.3c-1.1 0-2-.9-2-2v-5.5C55.7 94 48 81.4 35.8 75c-1-.5-1.4-1.7-.8-2.7.5-1 1.7-1.4 2.7-.8 13.6 7.1 22.1 21 22.1 36.4v5.5c-.1 1.1-1 1.9-2.1 1.9zM87.7 115.4c-1.1 0-2-.9-2-2v-5.5c0-15.1 8.3-28.5 22.1-35.7 1-.5 2.2-.1 2.7.8.5 1 .1 2.2-.8 2.7-12.5 6.5-19.9 18.5-19.9 32.1v5.5c-.1 1.2-1 2.1-2.1 2.1zM88.3 46.4c-.6 0-1.1-.2-1.5-.7l-5.2-6.2c-.7-.8-.6-2.1.2-2.8.8-.7 2.1-.6 2.8.2l5.2 6.2c.7.8.6 2.1-.2 2.8-.4.4-.9.5-1.3.5zM78.7 48.9c-1.1 0-2-.9-2-2v-5c0-1.1.9-2 2-2s2 .9 2 2v5c0 1.1-.9 2-2 2z" class="st0"/>
</svg>
