<svg xmlns="http://www.w3.org/2000/svg" id="Layer_1" viewBox="0 0 141.7 141.7">
  <style>
    .st0{fill:#FFE81F;}
  </style>
  <path d="M32.8 104.9c-1.7 0-3-1.3-3-3s1.3-3 3-3 3 1.3 3 3-1.4 3-3 3zm0-4c-.6 0-1 .4-1 1s.4 1 1 1 1-.4 1-1-.5-1-1-1zM43.8 32.9c-1.7 0-3-1.3-3-3s1.3-3 3-3 3 1.3 3 3-1.4 3-3 3zm0-4c-.6 0-1 .4-1 1s.4 1 1 1 1-.4 1-1-.5-1-1-1zM111.8 32.9c-1.7 0-3-1.3-3-3s1.3-3 3-3 3 1.3 3 3-1.4 3-3 3zm0-4c-.6 0-1 .4-1 1s.4 1 1 1 1-.4 1-1-.5-1-1-1zM52.6 64.4c-.7 0-1.4-.4-1.7-1-.6-1-.2-2.2.7-2.7l43.3-25c1-.6 2.2-.2 2.7.7.6 1 .2 2.2-.7 2.7l-43.3 25c-.3.2-.6.3-1 .3zM88.9 101.2c-.4 0-.8-.1-1.1-.3L80.3 96c-.9-.6-1.2-1.8-.6-2.8.6-.9 1.9-1.2 2.8-.6l6.4 4.2L107.5 86l-.5-7.7c-.1-1.1.8-2.1 1.9-2.1 1.1-.1 2 .8 2.1 1.9l.5 8.9c0 .8-.3 1.5-1 1.9l-20.8 12c-.1.2-.5.3-.8.3z" class="st0"/>
  <path d="M97.8 101.6c-2.6 0-5.1-.9-7.2-2.6-.8-.7-.9-2-.2-2.8.7-.8 2-.9 2.8-.2 2.2 1.9 5.5 2.2 8.1.7 2.6-1.5 3.9-4.4 3.4-7.3-.2-1.1.5-2.1 1.6-2.3 1.1-.2 2.1.5 2.3 1.6.9 4.6-1.3 9.2-5.3 11.5-1.7.9-3.6 1.4-5.5 1.4zM60.3 36.6c-2 0-4-.5-5.8-1.6-.9-.6-1.2-1.8-.7-2.8.6-.9 1.8-1.2 2.8-.7 2.2 1.4 4.9 1.4 7.2.1 2.2-1.3 3.6-3.7 3.5-6.3 0-1.1.8-2 1.9-2.1 1.1 0 2 .8 2.1 1.9.1 4-2 7.8-5.5 9.8-1.7 1.2-3.6 1.7-5.5 1.7zM70.4 47.2c-.7 0-1.4-.4-1.7-1l-3-5.2c-.3-.5-.3-1-.2-1.5.1-.5.5-.9.9-1.2l8.7-5c1-.6 2.2-.2 2.7.7l3 5.2c.3.5.3 1 .2 1.5-.1.5-.5.9-.9 1.2l-8.7 5c-.3.2-.6.3-1 .3zm-.2-6.5l1 1.7 5.2-3-1-1.7-5.2 3zM50.3 58.8c-.7 0-1.4-.4-1.7-1-.6-1-.2-2.2.7-2.7l11.5-6.6-1-1.7-9.5 5.5c-1 .6-2.2.2-2.7-.7s-.2-2.2.7-2.7l11.2-6.5c.5-.3 1-.3 1.5-.2.5.1.9.5 1.2.9l3 5.2c.6 1 .2 2.2-.7 2.7l-13.2 7.6c-.3.1-.7.2-1 .2z" class="st0"/>
  <path d="M73.6 100.7c-.7 0-1.3-.4-1.7-1l-4.8-8c-.6-1-.2-2.2.7-2.7 1-.6 2.2-.2 2.7.7l3.7 6.3 39.9-23-20-34.6c-3.1-5.3-8-9.1-14-10.7-5.9-1.6-12.1-.8-17.5 2.3-5.3 3.1-9.1 8-10.7 14-1.6 5.9-.8 12.1 2.3 17.5l10.5 18.2c.6 1 .2 2.2-.7 2.7-1 .6-2.2.2-2.7-.7L50.9 63.4c-3.6-6.2-4.6-13.5-2.7-20.5 1.9-7 6.3-12.8 12.6-16.4 6.2-3.6 13.5-4.6 20.5-2.7 7 1.9 12.8 6.3 16.4 12.6l21 36.4c.6 1 .2 2.2-.7 2.7l-43.3 25c-.4.2-.7.2-1.1.2zM114.8 118.9h-28c-.6 0-1.2-.3-1.6-.8-.4-.5-.5-1.2-.3-1.8l4-12c.3-.8 1-1.4 1.9-1.4h20c.9 0 1.6.6 1.9 1.4l4 12c.2.6.1 1.3-.3 1.8s-1 .8-1.6.8zm-25.2-4H112l-2.7-8H92.2l-2.6 8zM68.8 118.9h-28c-.6 0-1.2-.3-1.6-.8-.4-.5-.5-1.2-.3-1.8l4-12c.3-.8 1-1.4 1.9-1.4h20c.9 0 1.6.6 1.9 1.4l4 12c.2.6.1 1.3-.3 1.8s-1 .8-1.6.8zm-25.2-4H66l-2.7-8H46.2l-2.6 8z" class="st0"/>
  <path d="M104.8 106.9c-1.1 0-2-.9-2-2v-8.6c0-1.1.9-2 2-2s2 .9 2 2v8.6c0 1.1-.9 2-2 2zM96.8 106.9c-1.1 0-2-.9-2-2v-5.3c0-1.1.9-2 2-2s2 .9 2 2v5.3c0 1.1-.9 2-2 2zM79.8 67.9c-1.9 0-3.6-.7-5-2.1-1.3-1.3-2-3.1-2-4.9s.7-3.6 2.1-4.9c1.3-1.3 3.1-2.1 4.9-2.1 1.9 0 3.6.7 4.9 2.1 1.3 1.3 2.1 3.1 2.1 4.9s-.7 3.6-2.1 4.9c-1.3 1.3-3 2.1-4.9 2.1zm0-10c-.8 0-1.6.3-2.1.9-.6.6-.9 1.3-.9 2.1s.3 1.6.9 2.1c1.1 1.1 3.1 1.1 4.2 0 .6-.6.9-1.3.9-2.1s-.3-1.6-.9-2.1c-.6-.6-1.3-.9-2.1-.9zM29.8 64.9c-3.9 0-7-3.1-7-7s3.1-7 7-7 7 3.1 7 7-3.1 7-7 7zm0-10c-1.7 0-3 1.3-3 3s1.3 3 3 3 3-1.3 3-3-1.4-3-3-3zM40.8 82.9c-1.1 0-2-.9-2-2s.9-2 2-2c1.7 0 3-1.3 3-3 0-1.1.9-2 2-2s2 .9 2 2c0 3.8-3.1 7-7 7z" class="st0"/>
  <g>
    <path d="M50.8 82.9c-3.9 0-7-3.1-7-7 0-1.1.9-2 2-2s2 .9 2 2c0 1.7 1.3 3 3 3 1.1 0 2 .9 2 2s-.9 2-2 2z" class="st0"/>
  </g>
  <g>
    <path d="M45.8 87.9c-1.1 0-2-.9-2-2 0-1.7-1.3-3-3-3-1.1 0-2-.9-2-2s.9-2 2-2c3.9 0 7 3.1 7 7 0 1.1-.9 2-2 2z" class="st0"/>
  </g>
  <g>
    <path d="M45.8 87.9c-1.1 0-2-.9-2-2 0-3.9 3.1-7 7-7 1.1 0 2 .9 2 2s-.9 2-2 2c-1.7 0-3 1.3-3 3 0 1.1-.9 2-2 2z" class="st0"/>
  </g>
  <g>
    <path d="M49.8 106.9c-.3 0-.7-.1-1-.2-1-.5-1.3-1.8-.8-2.7l25.7-46.6c.5-1 1.7-1.3 2.7-.8 1 .5 1.3 1.8.8 2.7l-25.7 46.6c-.3.6-1 1-1.7 1z" class="st0"/>
  </g>
  <g>
    <path d="M60.8 106.9c-.3 0-.7-.1-1-.3-1-.5-1.3-1.8-.8-2.7l23.2-41.2c.5-1 1.8-1.3 2.7-.8 1 .5 1.3 1.8.8 2.7l-23.2 41.2c-.3.7-1 1.1-1.7 1.1z" class="st0"/>
  </g>
  <g>
    <path d="M79.8 74.9h-1.1c-1.1-.1-1.9-1-1.8-2.1.1-1.1 1-1.9 2.1-1.8 2 .2 4-.3 5.7-1.3 4.8-2.7 6.5-8.8 3.8-13.6-.5-1-.2-2.2.8-2.7s2.2-.2 2.7.8c3.8 6.7 1.4 15.3-5.3 19.1-2.1.9-4.5 1.6-6.9 1.6z" class="st0"/>
  </g>
</svg>
