<svg xmlns="http://www.w3.org/2000/svg" id="Layer_1" viewBox="0 0 141.7 141.7">
  <style>
    .st0{fill:#FFE81F;}
  </style>
  <path d="M34.5 66.9c-.7 0-1.4-.4-1.7-1-3.8-6.6-4.8-14.4-2.9-21.8 2-7.4 6.7-13.6 13.4-17.4 6.6-3.8 14.4-4.9 21.8-2.9 7.4 2 13.6 6.7 17.4 13.4.6 1 .2 2.2-.7 2.7-1 .6-2.2.2-2.7-.7-3.3-5.7-8.6-9.8-15-11.5-6.4-1.7-13-.8-18.7 2.5-5.7 3.3-9.8 8.6-11.5 15s-.8 13 2.5 18.7c.6 1 .2 2.2-.7 2.7-.5.2-.8.3-1.2.3z" class="st0"/>
  <path d="M41.8 68.9c-.2 0-.3 0-.5-.1l-7.3-2c-1.1-.3-1.7-1.4-1.4-2.4.3-1.1 1.4-1.7 2.4-1.4l6.5 1.7 35.6-20.5 1.7-6.5c.3-1.1 1.4-1.7 2.4-1.4 1.1.3 1.7 1.4 1.4 2.4l-2 7.3c-.1.5-.5.9-.9 1.2l-37 21.4c-.2.2-.5.3-.9.3z" class="st0"/>
  <path d="M52.9 52.9c-.9 0-1.7-.1-2.6-.3-2.6-.7-4.7-2.3-6.1-4.7s-1.7-5-1-7.6 2.3-4.7 4.7-6.1c2.3-1.3 5-1.7 7.6-1 2.6.7 4.7 2.3 6.1 4.7 1.3 2.3 1.7 5 1 7.6s-2.3 4.7-4.7 6.1c-1.6.8-3.3 1.3-5 1.3zm0-16c-1 0-2.1.3-3 .8-1.4.8-2.4 2.1-2.8 3.6-.4 1.5-.2 3.2.6 4.6.8 1.4 2.1 2.4 3.6 2.8 1.5.4 3.2.2 4.6-.6 1.4-.8 2.4-2.1 2.8-3.6.4-1.5.2-3.2-.6-4.6-.8-1.4-2.1-2.4-3.6-2.8-.6-.2-1.1-.2-1.6-.2zM69.9 42.9c-1 0-2-.5-2.6-1.5-.8-1.4-.3-3.3 1.1-4.1 1.4-.8 3.3-.3 4.1 1.1.8 1.4.3 3.3-1.1 4.1-.5.2-1 .4-1.5.4zm.8-3.5l-1.7 1c.3.5.9.6 1.4.4.4-.3.6-1 .3-1.4zm-.8-.5c-.2 0-.3 0-.5.1-.5.3-.6.9-.4 1.4l1.7-1c-.2-.3-.5-.5-.8-.5zM83.9 76.9c-1.7 0-3-1.3-3-3s1.3-3 3-3 3 1.3 3 3-1.4 3-3 3zm0-4c-.6 0-1 .4-1 1s.4 1 1 1 1-.4 1-1-.5-1-1-1zM56.9 99.9c-1.7 0-3-1.3-3-3s1.3-3 3-3 3 1.3 3 3-1.4 3-3 3zm0-4c-.6 0-1 .4-1 1s.4 1 1 1 1-.4 1-1-.5-1-1-1z" class="st0"/>
  <path d="M74.9 118.9c-20.4 0-37-16.6-37-37 0-5.8 1.3-12 3.4-16.5.5-1 1.7-1.4 2.7-1 1 .5 1.4 1.7 1 2.7-1.9 4-3 9.6-3 14.9 0 18.2 14.8 33 33 33s33-14.8 33-33c0-17.7-13.8-32.1-31.4-33-1.1-.1-2-1-1.9-2.1.1-1.1 1-1.9 2.1-1.9 19.8.9 35.2 17.2 35.2 37-.1 20.3-16.7 36.9-37.1 36.9z" class="st0"/>
  <path d="M109.6 79.9c-.3 0-.7-.1-1-.3-13-7.2-23.4-18.1-30.1-31.4-.5-1-.1-2.2.9-2.7s2.2-.1 2.7.9c6.3 12.6 16.1 22.9 28.4 29.7 1 .5 1.3 1.8.8 2.7-.3.7-1 1.1-1.7 1.1zM72.7 118.8c-.3 0-.6-.1-.9-.2-3.4-1.7-5.8-4.4-7-7.6-1.4-3.6-1.2-7.5.5-11.4C67.8 94 73 89.4 79.6 86.8c11.6-4.5 23.9-1 27.3 7.9.4 1.1.7 2.2.8 3.3.1 1.1-.7 2.1-1.8 2.2-1.1.1-2.1-.7-2.2-1.8-.1-.8-.3-1.6-.6-2.3-2.7-6.8-12.6-9.3-22.2-5.6-5.6 2.2-10.1 6.2-12.1 10.7-1.3 2.9-1.4 5.8-.4 8.3.9 2.3 2.7 4.2 5.2 5.5 1 .5 1.4 1.7.9 2.7-.3.7-1 1.1-1.8 1.1zM48.9 89.9c-3.3 0-6.5-.6-9.5-1.9-1-.4-1.5-1.6-1.1-2.6.4-1 1.6-1.5 2.6-1.1 2.5 1 5.2 1.6 8 1.6 11.6 0 21-9.4 21-21 0-4.3-1.3-8.4-3.7-11.9-.6-.9-.4-2.2.5-2.8.9-.6 2.2-.4 2.8.5 2.9 4.2 4.4 9.1 4.4 14.1 0 13.9-11.2 25.1-25 25.1z" class="st0"/>
  <path d="M73 95c-.6 0-1.1-.2-1.5-.7l-9.3-10.5c-.7-.8-.7-2.1.2-2.8.8-.7 2.1-.6 2.8.2l9.3 10.5c.7.8.7 2.1-.2 2.8-.4.3-.9.5-1.3.5zM99 90.9c-.1 0-.3 0-.5-.1-1.1-.2-1.7-1.3-1.5-2.4l3.6-15.5c.2-1.1 1.3-1.7 2.4-1.5 1.1.2 1.7 1.3 1.5 2.4l-3.6 15.5c-.2 1-1 1.6-1.9 1.6zM70.3 58.4c-.9 0-1.8-.7-2-1.6-.2-1.1.5-2.1 1.6-2.3l13.8-2.7c1.1-.2 2.1.5 2.3 1.6.2 1.1-.5 2.1-1.6 2.3l-13.8 2.7h-.3zM29.9 118.9h-5c-1.1 0-2-.9-2-2s.9-2 2-2h5c1.1 0 2 .9 2 2s-.9 2-2 2zM101.9 118.9h-64c-1.1 0-2-.9-2-2s.9-2 2-2h64c1.1 0 2 .9 2 2s-.9 2-2 2z" class="st0"/>
  <g>
    <path d="M116.9 118.9h-7c-1.1 0-2-.9-2-2s.9-2 2-2h7c1.1 0 2 .9 2 2s-.9 2-2 2z" class="st0"/>
  </g>
  <g>
    <path d="M51.2 76.2c-5.5 0-10-4.1-10.6-9.6-.1-1.1.7-2.1 1.8-2.2 1.1-.1 2.1.7 2.2 1.8.4 3.4 3.2 6 6.6 6 3.7 0 6.7-3 6.7-6.7 0-2.1-1-4.1-2.8-5.4-.9-.6-1.1-1.9-.4-2.8.6-.9 1.9-1.1 2.8-.4 2.8 2 4.4 5.2 4.4 8.6 0 5.9-4.8 10.7-10.7 10.7z" class="st0"/>
  </g>
  <g>
    <path d="M85.3 114.8c-1.9 0-3.6-.5-5-1.4-1.8-1.2-3-3-3.3-5-.7-4.7 3-9.5 8.4-11.1 3-.8 5.9-.5 8.2 1 1.8 1.2 3 3 3.3 5 .7 4.7-3 9.5-8.4 11.1-1.1.3-2.2.4-3.2.4zm3.2-13.9c-.7 0-1.4.1-2.1.3-3.4.9-5.9 4-5.5 6.6.2 1.2.9 1.9 1.5 2.3 1.3.8 3.1 1 4.9.5 3.4-.9 5.9-4 5.5-6.6-.2-1.2-.9-1.9-1.5-2.3-.8-.5-1.8-.8-2.8-.8z" class="st0"/>
  </g>
</svg>
